<svg preserveAspectRatio="none" width="100%" height="100%" overflow="visible" style="display: block;" viewBox="0 0 64 64" fill="none" xmlns="http://www.w3.org/2000/svg">
<g id="fi_1688116" clip-path="url(#clip0_0_6)">
<path id="Vector" d="M55.6557 19.6085C58.2831 17.6138 59.9833 14.4581 59.9833 10.9127C59.9833 4.89559 55.0883 9.15527e-05 49.0707 9.15527e-05C43.0537 9.15527e-05 38.1582 4.89559 38.1582 10.9127C38.1582 14.4556 39.8559 17.6094 42.4804 19.6041C40.4707 20.5972 37.392 22.7041 35.5146 26.7544C34.4213 26.3384 33.2373 26.1084 32 26.1084C30.7627 26.1084 29.5786 26.3384 28.4858 26.7544C26.6084 22.7051 23.5303 20.5977 21.5195 19.6041C24.144 17.6094 25.8418 14.4556 25.8418 10.9127C25.8418 4.89559 20.9463 9.15527e-05 14.9292 9.15527e-05C8.91212 9.15527e-05 4.01662 4.89559 4.01662 10.9127C4.01662 14.4581 5.71681 17.6138 8.34425 19.6085C3.40578 22.0459 2.67029e-05 27.1343 2.67029e-05 33.0044V62.125C2.67029e-05 63.1606 0.839381 64 1.87502 64H62.1249C63.1605 64 63.9999 63.1606 63.9999 62.125V33.0044C63.9999 27.1343 60.5941 22.0459 55.6557 19.6085ZM41.9081 10.9127C41.9081 6.96346 45.1215 3.75008 49.0707 3.75008C53.0204 3.75008 56.2333 6.96346 56.2333 10.9127C56.2333 14.8624 53.0204 18.0753 49.0707 18.0753C45.1215 18.0753 41.9081 14.8624 41.9081 10.9127ZM38.1582 36.0166C38.1582 39.4126 35.396 42.1753 32 42.1753C28.6045 42.1753 25.8418 39.4126 25.8418 36.0166C25.8418 32.6211 28.6045 29.8584 32 29.8584C35.396 29.8584 38.1582 32.6211 38.1582 36.0166ZM7.76661 10.9127C7.76661 6.96346 10.98 3.75008 14.9292 3.75008C18.8789 3.75008 22.0918 6.96346 22.0918 10.9127C22.0918 14.8624 18.8789 18.0753 14.9292 18.0753C10.98 18.0753 7.76661 14.8624 7.76661 10.9127ZM3.75002 33.0044C3.75002 26.8404 8.76515 21.8252 14.9292 21.8252C19.4746 21.8252 23.5664 24.6211 25.27 28.7539C23.3169 30.5645 22.0918 33.1499 22.0918 36.0166C22.0918 39.1944 23.5971 42.0254 25.9302 43.8398C22.4326 45.9185 20.0835 49.7344 20.0835 54.0898V60.25H3.75002V33.0044ZM23.8335 54.0898C23.8335 49.5879 27.4961 45.9253 32 45.9253C36.5029 45.9253 40.1665 49.5889 40.1665 54.0918V60.25H23.8335V54.0898ZM60.2499 60.25H43.9164V54.0918C43.9164 49.7363 41.5673 45.9194 38.0688 43.8408C40.4023 42.0264 41.9081 39.1948 41.9081 36.0166C41.9081 33.1499 40.6831 30.5645 38.7299 28.7539C40.4335 24.6211 44.5253 21.8252 49.0707 21.8252C55.2348 21.8252 60.2499 26.8404 60.2499 33.0044V60.25Z" fill="var(--fill-0, #A9EB8A)"/>
</g>
<defs>
<clipPath id="clip0_0_6">
<rect width="64" height="64" fill="white"/>
</clipPath>
</defs>
</svg>
