<svg preserveAspectRatio="none" width="100%" height="100%" overflow="visible" style="display: block;" viewBox="0 0 153.664 40.9728" fill="none" xmlns="http://www.w3.org/2000/svg">
<g id="Okocimski Klub Tenisowy">
<path id="Vector" d="M141.034 25.4645H144.74C146.583 30.1025 147.37 32.6906 147.577 33.4567H147.639C147.929 32.4008 148.757 29.5641 150.206 25.4645H153.664L150.082 34.6369C148.239 39.4199 147.68 40.9728 144.016 40.9728C143.539 40.9728 142.753 40.9313 142.359 40.8485V38.1154C142.856 38.1568 143.105 38.1775 143.436 38.1775C144.906 38.1775 145.237 37.7013 145.796 36.5832L141.034 25.4645Z" fill="var(--fill-0, white)"/>
<path id="Vector_2" d="M123.253 25.4645H126.752C128.036 30.7857 128.367 32.3593 128.554 33.5396H128.574C128.885 32.2144 129.237 30.765 130.728 25.4645H133.896C135.428 31.0135 135.759 32.4836 135.945 33.4774H135.966C136.152 32.3593 136.525 30.5373 137.809 25.4645H141.122L137.767 36.1691H134.123C133.047 32.4215 132.529 30.6408 132.177 29.2328H132.156C131.866 30.3716 131.142 33.0219 130.127 36.1691H126.442L123.253 25.4645Z" fill="var(--fill-0, white)"/>
<path id="Vector_3" d="M116.505 25.1744C120.688 25.1744 122.634 28.1559 122.634 30.8062C122.634 34.0984 120.356 36.4588 116.381 36.4588C112.385 36.4588 110.356 33.7878 110.356 30.8062C110.356 27.8868 112.468 25.1744 116.505 25.1744ZM116.464 27.7418C114.621 27.7418 113.793 29.1705 113.793 30.8062C113.793 32.4834 114.725 33.912 116.485 33.912C118.307 33.912 119.156 32.5041 119.156 30.8683C119.156 29.2533 118.348 27.7418 116.464 27.7418Z" fill="var(--fill-0, white)"/>
<path id="Vector_4" d="M98.4313 32.8768H101.786C102.055 33.6428 102.759 34.1398 104.208 34.1398C105.657 34.1398 106.051 33.705 106.051 33.1873C106.051 32.5869 105.595 32.297 103.442 32.0071C99.3631 31.4274 98.804 29.9366 98.804 28.6322C98.804 26.9964 100.026 25.1744 103.753 25.1744C107.521 25.1744 108.846 26.955 108.991 28.4872H105.678C105.513 27.9903 105.14 27.4105 103.628 27.4105C102.345 27.4105 102.117 27.9075 102.117 28.2802C102.117 28.7357 102.469 29.0049 104.457 29.2947C108.805 29.9573 109.364 31.4067 109.364 32.8975C109.364 34.8438 107.894 36.4588 103.98 36.4588C101.061 36.4588 98.7626 35.2165 98.4313 32.8768Z" fill="var(--fill-0, white)"/>
<path id="Vector_5" d="M93.4257 36.1688V25.4642H96.8006V36.1688H93.4257ZM96.8006 23.4558H93.4257V20.7434H96.8006V23.4558Z" fill="var(--fill-0, white)"/>
<path id="Vector_6" d="M79.7863 36.1689V28.1766C79.7863 27.2656 79.7863 26.2303 79.7656 25.4642H83.0577C83.0991 25.7748 83.1405 26.4167 83.1612 26.8515C83.6582 26.1061 84.6313 25.1744 86.7226 25.1744C89.3521 25.1744 90.905 26.8101 90.905 29.5639V36.1689H87.4887V30.1022C87.4887 28.8806 87.0124 27.8039 85.5009 27.8039C83.9066 27.8039 83.1819 28.9013 83.1819 30.8269V36.1689H79.7863Z" fill="var(--fill-0, white)"/>
<path id="Vector_7" d="M78.0352 31.6344H69.6495C69.7323 32.9389 70.6641 33.9534 72.2791 33.9534C73.5421 33.9534 74.1426 33.56 74.536 32.8975H77.9316C77.2691 34.8023 75.6747 36.4588 72.2377 36.4588C67.8481 36.4588 66.2745 33.56 66.2745 30.8269C66.2745 27.8247 68.3037 25.1744 72.217 25.1744C76.3787 25.1744 78.0559 28.0524 78.0559 30.8269C78.0559 31.0961 78.0559 31.3031 78.0352 31.6344ZM69.6909 29.5639H74.6188C74.5567 28.7564 74.1218 27.5555 72.1963 27.5555C70.4363 27.5555 69.7737 28.5079 69.6909 29.5639Z" fill="var(--fill-0, white)"/>
<path id="Vector_8" d="M59.0896 36.1693V24.4087H53.9547V21.5927H67.7444V24.4087H62.6302V36.1693H59.0896Z" fill="var(--fill-0, white)"/>
<path id="Vector_9" d="M35.887 32.6075V20.7434H39.262V26.6237C39.8004 25.9818 40.7735 25.1743 42.8026 25.1743C45.7221 25.1743 48.0204 27.4312 48.0204 30.5991C48.0204 34.2846 45.5978 36.4587 42.5956 36.4587C40.5457 36.4587 39.6347 35.7133 39.1378 34.9679C39.1378 35.2371 39.1171 35.9204 39.0964 36.1688H35.8663C35.887 34.6159 35.887 33.7877 35.887 32.6075ZM44.5419 30.7647C44.5419 29.2533 43.7551 27.8039 41.8916 27.8039C40.0074 27.8039 39.1792 29.0048 39.1792 30.8062C39.1792 32.504 40.0902 33.7877 41.8502 33.7877C43.6722 33.7877 44.5419 32.4419 44.5419 30.7647Z" fill="var(--fill-0, white)"/>
<path id="Vector_10" d="M33.4429 25.4645V33.0633C33.4429 34.0779 33.4429 35.1339 33.4636 36.1691H30.1508C30.1094 35.8793 30.1094 35.3823 30.0887 34.9268C29.5503 35.755 28.7428 36.459 26.4859 36.459C24.2498 36.459 22.5105 35.1546 22.5105 32.0074V25.4645H25.8855V31.4483C25.8855 32.877 26.4031 33.8294 27.8111 33.8294C29.4468 33.8294 30.0679 32.8563 30.0679 30.413V25.4645H33.4429Z" fill="var(--fill-0, white)"/>
<path id="Vector_11" d="M20.234 36.1688H16.859V20.7434H20.234V36.1688Z" fill="var(--fill-0, white)"/>
<path id="Vector_12" d="M0.704098 36.1693V21.5927H4.24471V27.97C6.33595 26.0237 8.36507 24.1809 11.1396 21.5927H15.467L8.61353 27.8664L15.8397 36.1693H11.4502L6.08748 29.8127L4.24471 31.3449V36.1693H0.704098Z" fill="var(--fill-0, white)"/>
<path id="Vector_13" d="M99.3167 15.6119V5.19709H100.87V15.6119H99.3167ZM100.87 2.27764H99.3167V5.54458e-05H100.87V2.27764Z" fill="var(--fill-0, white)"/>
<path id="Vector_14" d="M89.2733 5.54458e-05V10.332C90.3914 9.35886 93.6835 6.62576 95.4021 5.19709H97.4519L92.5033 9.25533L97.9902 15.6119H95.9404L91.3231 10.1664L89.2733 11.7607V15.6119H87.6997V5.54458e-05H89.2733Z" fill="var(--fill-0, white)"/>
<path id="Vector_15" d="M75.6749 12.4646H77.2692C77.6626 13.8519 78.8428 14.6387 80.8512 14.6387C83.0253 14.6387 83.8328 13.8519 83.8328 12.7959C83.8328 11.8435 83.2944 11.1602 80.4785 10.8496C76.9172 10.4148 76.1718 9.19318 76.1718 7.88874C76.1718 6.60501 77.2278 4.90717 80.4578 4.90717C84.0605 4.90717 84.9923 6.81206 85.0751 7.99227H83.5015C83.3358 7.30899 82.8803 6.1702 80.3543 6.1702C78.2216 6.1702 77.7661 7.10194 77.7661 7.76451C77.7661 8.63413 78.3044 9.15177 80.8098 9.48305C84.6403 9.97998 85.4271 11.1188 85.4271 12.6924C85.4271 14.5559 83.9984 15.9017 80.7684 15.9017C77.6833 15.9017 76.0476 14.5973 75.6749 12.4646Z" fill="var(--fill-0, white)"/>
<path id="Vector_16" d="M58.2586 15.6118V7.88874C58.2586 6.97771 58.2586 6.08738 58.2379 5.19705H59.7701C59.8115 5.63186 59.8322 6.25302 59.8115 6.85347C60.3498 5.92173 61.3644 4.90717 63.2486 4.90717C64.9257 4.90717 65.9817 5.73539 66.4579 6.97771C67.0169 6.04597 67.9901 4.90717 70.0606 4.90717C72.069 4.90717 73.7255 6.06667 73.7255 9.13106V15.6118H72.1726V9.19318C72.1726 7.88874 71.7584 6.27373 69.7707 6.27373C67.9694 6.27373 66.7892 7.51604 66.7892 9.91786V15.6118H65.2156V9.08965C65.2156 7.78521 64.7808 6.27373 62.793 6.27373C60.6397 6.27373 59.8322 7.97156 59.8322 10.1042V15.6118H58.2586Z" fill="var(--fill-0, white)"/>
<path id="Vector_17" d="M53.6181 15.6119V5.19709H55.171V15.6119H53.6181ZM55.171 2.27764H53.6181V5.54458e-05H55.171V2.27764Z" fill="var(--fill-0, white)"/>
<path id="Vector_18" d="M49.71 12.4232H51.2836C50.7452 14.2867 49.1302 15.9017 46.2936 15.9017C42.6909 15.9017 40.9102 13.4171 40.9102 10.4562C40.9102 7.45393 42.9186 4.90717 46.335 4.90717C49.6685 4.90717 51.0144 6.99841 51.2629 8.44778H49.71C49.2959 7.37111 48.3848 6.23232 46.2936 6.23232C43.9539 6.23232 42.5045 7.97156 42.5045 10.4148C42.5045 12.7338 43.8918 14.5766 46.3143 14.5766C48.1364 14.5766 49.1716 13.7069 49.71 12.4232Z" fill="var(--fill-0, white)"/>
<path id="Vector_19" d="M34.072 4.90717C37.5505 4.90717 39.4553 7.59887 39.4553 10.3941C39.4553 13.21 37.6747 15.9017 33.9891 15.9017C30.5728 15.9017 28.6058 13.2928 28.6058 10.4148C28.6058 7.39181 30.697 4.90717 34.072 4.90717ZM33.9891 6.25302C31.4424 6.25302 30.2001 8.17861 30.2001 10.4148C30.2001 12.506 31.5873 14.5559 34.0306 14.5559C36.598 14.5559 37.8403 12.651 37.8403 10.4355C37.8403 8.17861 36.4324 6.25302 33.9891 6.25302Z" fill="var(--fill-0, white)"/>
<path id="Vector_20" d="M19.6128 5.54458e-05V10.332C20.7308 9.35886 24.023 6.62576 25.7415 5.19709H27.7914L22.8428 9.25533L28.3297 15.6119H26.2799L21.6626 10.1664L19.6128 11.7607V15.6119H18.0392V5.54458e-05H19.6128Z" fill="var(--fill-0, white)"/>
<path id="Vector_21" d="M7.70247 0.55932C12.299 0.55932 15.3427 4.07923 15.3427 8.19958C15.3427 12.3821 12.5061 15.9227 7.68176 15.9227C3.00236 15.9227 8.97622e-05 12.5063 8.97622e-05 8.17888C8.97622e-05 4.07923 3.04377 0.55932 7.70247 0.55932ZM7.57824 2.00869C3.99622 2.00869 1.76004 4.82462 1.76004 8.11676C1.76004 11.4089 3.85128 14.4733 7.72317 14.4733C11.5122 14.4733 13.5828 11.6574 13.5828 8.241C13.5828 5.05238 11.4708 2.00869 7.57824 2.00869Z" fill="var(--fill-0, white)"/>
</g>
</svg>
