<svg preserveAspectRatio="none" width="100%" height="100%" overflow="visible" style="display: block;" viewBox="0 0 21.0938 21.0938" fill="none" xmlns="http://www.w3.org/2000/svg">
<g id="Group">
<path id="Vector" d="M12.7875 5.99531H8.31093C7.03593 5.99531 5.99531 7.03125 5.99531 8.31094V12.7875C5.99531 14.0625 7.03125 15.1031 8.31093 15.1031H12.7875C14.0625 15.1031 15.1031 14.0672 15.1031 12.7875V8.31094C15.0984 7.03125 14.0625 5.99531 12.7875 5.99531ZM10.5469 13.5422C8.89687 13.5422 7.55156 12.1969 7.55156 10.5469C7.55156 8.89687 8.89687 7.55156 10.5469 7.55156C12.1969 7.55156 13.5422 8.89687 13.5422 10.5469C13.5422 12.1969 12.1969 13.5422 10.5469 13.5422ZM13.6922 7.88437C13.4109 7.88437 13.1859 7.65937 13.1859 7.37812C13.1859 7.09687 13.4109 6.87188 13.6922 6.87188C13.9734 6.87188 14.1984 7.09687 14.1984 7.37812C14.1984 7.65937 13.9734 7.88437 13.6922 7.88437Z" fill="var(--fill-0, white)"/>
<path id="Vector_2" d="M12.3677 10.569C12.3797 9.56456 11.5752 8.74051 10.5708 8.72845C9.56629 8.7164 8.74224 9.52091 8.73018 10.5254C8.71813 11.5298 9.52264 12.3539 10.5271 12.366C11.5316 12.378 12.3556 11.5735 12.3677 10.569Z" fill="var(--fill-0, white)"/>
<path id="Vector_3" d="M10.5469 0C4.72031 0 0 4.72031 0 10.5469C0 16.3734 4.72031 21.0938 10.5469 21.0938C16.3734 21.0938 21.0938 16.3734 21.0938 10.5469C21.0938 4.72031 16.3734 0 10.5469 0ZM16.4062 12.7875C16.4062 14.7844 14.7844 16.4062 12.7875 16.4062H8.31094C6.31406 16.4062 4.69219 14.7844 4.69219 12.7875V8.31094C4.69219 6.31406 6.31406 4.69219 8.31094 4.69219H12.7875C14.7844 4.69219 16.4062 6.31406 16.4062 8.31094V12.7875Z" fill="var(--fill-0, white)"/>
</g>
</svg>
