<svg preserveAspectRatio="none" width="100%" height="100%" overflow="visible" style="display: block;" viewBox="0 0 51.8698 51.2402" fill="none" xmlns="http://www.w3.org/2000/svg">
<g id="Layer_1" clip-path="url(#clip0_0_42)">
<path id="Vector" d="M19.1054 32.2601C17.1229 32.1062 15.2523 31.5919 13.4459 30.8531L11.0033 29.6234L12.1648 27.9982C13.2121 28.5761 14.263 29.0604 15.3894 29.4567C18.4543 30.4853 21.9084 30.6758 24.9043 29.3304C26.9772 28.3992 28.6627 26.8184 29.659 24.7678C30.3888 23.3141 30.7722 21.7314 30.8525 20.0879C31.5562 19.9496 32.2298 19.8027 32.8813 19.5003C33.0598 21.4808 33.3415 23.376 33.7708 25.2821L34.2622 27.0323C34.9678 29.3869 36.0323 31.5958 37.4677 33.5942C38.0042 34.3411 38.5715 35.0183 39.232 35.6663L36.3027 38.6158C34.6694 37.0432 32.803 35.9523 30.7395 35.0238C29.1147 34.3088 27.4494 33.7582 25.7276 33.3273C23.5433 32.781 21.3703 32.435 19.1058 32.2593L19.1054 32.2601ZM35.5542 35.4056C35.7077 35.2626 35.8406 35.1208 35.9598 34.9801L35.6045 34.5196C34.5735 32.9567 33.6941 31.3199 33.0013 29.572C32.4391 28.1533 32.0491 26.7296 31.698 25.2038C30.4441 27.9694 28.3896 29.9823 25.6633 31.2092L27.382 31.6554C29.8355 32.292 33.4513 33.8899 35.5546 35.4056H35.5542Z" fill="var(--fill-0, white)"/>
<path id="Vector_2" d="M2.1653 14.3299C2.42908 16.1144 2.96561 17.7653 3.79436 19.3429C4.5861 20.8976 5.5972 22.3119 6.75208 23.6168L5.66383 25.4154C4.97028 24.663 4.34492 23.9437 3.77293 23.1426C2.1388 20.9354 1.01314 18.6108 0.388559 15.9223C-0.0754968 13.9247 -0.131994 11.8561 0.264655 9.84439C0.710787 7.58178 1.81268 5.39593 3.39732 3.73842C5.4733 1.56698 8.34179 0.311967 11.319 0.0540286C13.2454 -0.112735 15.1674 0.112084 17.0104 0.666925C17.55 0.829403 18.0242 1.00747 18.5545 1.19683C21.1136 2.23287 23.4452 3.70842 25.4916 5.63945C24.9216 6.00765 24.4065 6.41093 23.9229 6.93655C23.0377 6.14637 22.1509 5.44658 21.1795 4.80797C17.6217 2.53756 13.3396 1.24125 9.16587 2.50055C7.98723 2.85628 6.91339 3.42398 5.93541 4.17637C4.55415 5.2389 3.50915 6.67861 2.853 8.2952C2.07568 10.2103 1.86021 12.2671 2.1653 14.3295V14.3299Z" fill="var(--fill-0, white)"/>
<path id="Vector_3" d="M51.7468 47.2311C51.9965 47.7559 51.8504 48.3895 51.4472 48.7947L49.4339 50.8185C48.8904 51.3648 48.0694 51.3757 47.5021 50.8769C46.6589 50.1355 46.8323 49.3531 46.1146 48.6346L43.7191 46.2372L37.0381 39.5869L40.1723 36.4082L41.213 37.4552L43.6482 39.8818L44.9578 41.1894L46.521 42.7398L48.5666 44.7819C48.8647 45.0792 49.13 45.3835 49.4663 45.6352C50.0963 46.1066 51.2364 46.1561 51.7472 47.2307L51.7468 47.2311Z" fill="var(--fill-0, white)"/>
<path id="Vector_4" d="M28.2232 18.7433C25.1529 18.0349 23.0496 15.281 23.068 12.1651C23.8227 12.2185 24.5154 12.2033 25.2367 12.0544C27.4576 11.5795 29.3465 10.1475 30.4137 8.14755C30.7722 7.40452 31.0426 6.65642 31.1692 5.83896C32.3214 6.06807 33.322 6.62563 34.1827 7.39477C35.5608 8.71252 36.365 10.4967 36.2945 12.4187C34.9526 12.3096 33.6629 12.529 32.4722 13.087C30.1866 14.1503 28.6132 16.1908 28.2228 18.7429L28.2232 18.7433Z" fill="var(--fill-0, #95D776)"/>
<path id="Vector_5" d="M11.7935 38.6528C14.4984 39.3989 17.6014 38.9882 20.3106 38.3262C19.0937 38.8024 17.8376 39.1005 16.5557 39.3771C14.2767 39.7952 11.6911 39.9569 9.5356 38.9999C9.02206 38.772 8.56736 38.4634 8.14616 38.1022C7.69847 37.7184 7.37819 37.2801 7.10506 36.7626C6.68386 35.9647 6.46722 35.1125 6.46606 34.2004C6.46528 33.6685 6.49333 33.1628 6.59269 32.6419C6.7236 31.9557 6.89232 31.3148 7.14129 30.659C7.57184 29.5244 8.11071 28.477 8.75477 27.4414C11.1771 23.5443 14.4851 20.3298 18.1384 17.5801C19.4694 16.5772 20.8257 15.6569 22.2443 14.7416C22.5712 15.7664 23.0961 16.6454 23.7701 17.4387L21.5644 18.6668C20.0374 19.5447 18.5907 20.5035 17.1787 21.5657C15.5298 22.786 14.0117 24.1494 12.6063 25.6405C11.5274 26.7852 10.5958 28.0153 9.75925 29.3413C9.28 30.101 8.8927 30.8659 8.57476 31.7021C8.05927 33.0572 7.79705 34.5616 8.35618 35.9382C8.58255 36.4953 8.90089 36.9676 9.34819 37.3654C10.0538 37.9931 10.8791 38.4155 11.7935 38.6524V38.6528Z" fill="var(--fill-0, #C0C9C7)"/>
<path id="Vector_6" d="M5.28341 36.5528C4.74454 35.1731 4.56024 33.68 4.69896 32.2017C4.79831 31.1427 5.00053 30.1402 5.34068 29.138C6.33075 26.2208 8.05839 23.5849 10.0315 21.2378C11.1774 19.8748 12.3783 18.5789 13.7003 17.3928L15.6356 15.6566C17.3142 14.1507 19.1295 12.8353 20.9814 11.5526L21.9536 10.8828C21.8402 11.6979 21.8075 12.4367 21.8943 13.228C18.1199 15.6301 14.6721 18.2551 11.5803 21.463C9.17002 23.964 6.86065 27.2004 5.72681 30.4908C5.12755 32.2298 4.8665 33.9048 5.13184 35.7271C5.19145 36.0088 5.26042 36.259 5.2838 36.5528H5.28341Z" fill="var(--fill-0, #C0C9C7)"/>
<path id="Vector_7" d="M34.461 16.8781C33.1323 18.2344 31.2418 19.0725 29.3143 18.8788C29.9217 15.4789 32.7953 13.2844 36.1843 13.558C36.1243 14.0267 35.972 14.4323 35.7947 14.8523C35.4717 15.6168 35.0423 16.2846 34.461 16.8781Z" fill="var(--fill-0, #95D776)"/>
<path id="Vector_8" d="M23.2087 11.0428C23.2862 10.5191 23.4701 10.0184 23.7015 9.50762C24.8221 7.03421 27.299 5.53412 30.051 5.67361C29.7148 7.83335 28.3183 9.6249 26.3413 10.5117C25.3778 10.9512 24.3476 11.1188 23.2083 11.0428H23.2087Z" fill="var(--fill-0, #95D776)"/>
<path id="Vector_9" d="M13.2577 27.2834C14.0486 26.3139 14.9035 25.4517 15.8199 24.6186C17.5304 23.0644 19.3099 21.7704 21.2865 20.5696C22.4936 19.8429 23.7272 19.2 25.0087 18.5949C25.7073 19.1267 26.4367 19.4922 27.2857 19.7938C24.3915 20.6954 21.6091 21.8826 18.9791 23.4053C16.9553 24.5372 15.0664 25.8363 13.2573 27.2834H13.2577Z" fill="var(--fill-0, #C0C9C7)"/>
<path id="Vector_10" d="M20.265 6.88529C18.1454 5.79977 15.8739 5.0392 13.4908 4.85841C10.4427 4.62735 7.76087 5.30181 5.28007 7.17674C5.80062 6.42084 6.44469 5.80756 7.16278 5.2835C8.25259 4.48864 9.44605 3.9903 10.7751 3.74756C12.521 3.42883 14.2919 3.55741 15.9993 4.06862C18.4299 4.79645 20.8764 6.27941 22.5725 8.2042L20.265 6.88568V6.88529Z" fill="var(--fill-0, #C0C9C7)"/>
</g>
<defs>
<clipPath id="clip0_0_42">
<rect width="51.8698" height="51.2402" fill="white"/>
</clipPath>
</defs>
</svg>
