<svg preserveAspectRatio="none" width="100%" height="100%" overflow="visible" style="display: block;" viewBox="0 0 101.251 15.9021" fill="none" xmlns="http://www.w3.org/2000/svg">
<g id="w Brzesku">
<path id="Vector" d="M101.23 5.19743V12.5685C101.23 13.5831 101.23 14.5976 101.251 15.6122H99.7599C99.7185 15.3223 99.6771 14.5148 99.6771 13.6866C99.1594 14.9703 98.1656 15.9021 95.8673 15.9021C93.6518 15.9021 91.9333 14.7219 91.9333 11.6782V5.19743H93.5069V11.3883C93.5069 13.0033 94.1487 14.5148 96.1779 14.5148C98.6004 14.5148 99.6771 13.1069 99.6771 9.87683V5.19743H101.23Z" fill="var(--fill-0, white)"/>
<path id="Vector_2" d="M82.3958 0.000207719V10.3322C83.5139 9.35901 86.806 6.62591 88.5246 5.19724H90.5744L85.6258 9.25549L91.1127 15.612H89.0629L84.4456 10.1665L82.3958 11.7608V15.612H80.8222V0.000207719H82.3958Z" fill="var(--fill-0, white)"/>
<path id="Vector_3" d="M68.7971 12.4648H70.3914C70.7848 13.852 71.965 14.6388 73.9734 14.6388C76.1475 14.6388 76.955 13.852 76.955 12.7961C76.955 11.8436 76.4166 11.1603 73.6007 10.8498C70.0394 10.4149 69.294 9.19333 69.294 7.88889C69.294 6.60516 70.35 4.90733 73.58 4.90733C77.1827 4.90733 78.1145 6.81222 78.1973 7.99242H76.6237C76.458 7.30914 76.0025 6.17035 73.4765 6.17035C71.3438 6.17035 70.8883 7.10209 70.8883 7.76466C70.8883 8.63428 71.4267 9.15192 73.932 9.4832C77.7625 9.98013 78.5493 11.1189 78.5493 12.6925C78.5493 14.556 77.1206 15.9019 73.8906 15.9019C70.8055 15.9019 69.1698 14.5974 68.7971 12.4648Z" fill="var(--fill-0, white)"/>
<path id="Vector_4" d="M67.4201 10.7669H58.4962C58.6204 12.9824 60.0905 14.5767 62.368 14.5767C64.1073 14.5767 65.1012 13.8313 65.7016 12.7132H67.2752C66.7369 14.1833 65.2875 15.9019 62.2438 15.9019C58.6618 15.9019 56.9226 13.2102 56.9226 10.4356C56.9226 7.22632 59.0552 4.90733 62.1817 4.90733C66.095 4.90733 67.4201 7.82678 67.4201 10.3321V10.7669ZM58.5376 9.54532H65.7637C65.6809 8.17877 64.9562 6.19106 62.161 6.19106C59.9041 6.19106 58.7446 7.64043 58.5376 9.54532Z" fill="var(--fill-0, white)"/>
<path id="Vector_5" d="M45.8669 15.6122V14.4113L53.4658 6.52257H46.3017V5.19743H55.5156V6.43975L47.9788 14.2871H55.9918L55.6812 15.6122H45.8669Z" fill="var(--fill-0, white)"/>
<path id="Vector_6" d="M39.0261 15.612V8.03383C39.0261 7.08138 39.0261 6.12894 39.0054 5.1972H40.5169C40.5376 5.48708 40.579 6.56375 40.579 7.61972C41.283 5.9633 42.8566 4.90733 44.865 4.90733V6.46023C42.4425 6.41881 40.579 8.01312 40.579 11.0982V15.612H39.0261Z" fill="var(--fill-0, white)"/>
<path id="Vector_7" d="M24.5264 15.6121V0.869902H31.3178C34.3822 0.869902 36.0593 2.19504 36.0593 4.55545C36.0593 6.41893 34.7756 7.37137 33.6161 7.68195C34.9205 8.01324 36.6805 8.92427 36.6805 11.3261C36.6805 14.3284 34.1751 15.6121 31.5248 15.6121H24.5264ZM26.1622 7.04009H30.8623C33.1399 7.04009 34.3201 6.25328 34.3201 4.65897C34.3201 2.7955 32.8086 2.27786 30.9658 2.27786H26.1622V7.04009ZM26.1622 8.44805V14.2041H31.0486C32.8914 14.2041 34.9205 13.6451 34.9205 11.3675C34.9205 9.4212 33.3469 8.44805 30.7795 8.44805H26.1622Z" fill="var(--fill-0, white)"/>
<path id="Vector_8" d="M8.97622e-05 5.19743H1.63581C3.70634 11.554 4.16186 12.9826 4.43103 14.1007H4.45173C4.7209 13.0862 5.19712 11.7403 7.55753 5.19743H9.06902C11.3466 11.5747 11.9056 13.169 12.092 13.9765H12.1127C12.3612 12.9826 13.1066 10.6429 14.9907 5.19743H16.5643L12.8581 15.6122H11.2638C9.98005 11.9474 8.5928 8.15829 8.24081 6.99879H8.2201C7.95093 7.95124 6.79143 11.2848 5.19712 15.6122H3.51999L8.97622e-05 5.19743Z" fill="var(--fill-0, white)"/>
</g>
</svg>
