<svg preserveAspectRatio="none" width="100%" height="100%" overflow="visible" style="display: block;" viewBox="0 0 36.5069 36.0638" fill="none" xmlns="http://www.w3.org/2000/svg">
<g id="Layer_1" clip-path="url(#clip0_0_16)">
<path id="Vector" d="M13.4467 22.7051C12.0514 22.5968 10.7348 22.2348 9.46349 21.7148L7.74432 20.8494L8.56181 19.7055C9.29895 20.1122 10.0386 20.4531 10.8314 20.732C12.9885 21.456 15.4195 21.5901 17.5281 20.6431C18.987 19.9877 20.1734 18.8752 20.8746 17.4319C21.3882 16.4087 21.6581 15.2948 21.7146 14.1381C22.2098 14.0407 22.684 13.9373 23.1425 13.7245C23.2681 15.1184 23.4664 16.4523 23.7686 17.7939L24.1144 19.0257C24.611 20.6829 25.3602 22.2375 26.3705 23.6441C26.7481 24.1698 27.1474 24.6464 27.6122 25.1024L25.5505 27.1784C24.4009 26.0716 23.0874 25.3037 21.635 24.6502C20.4915 24.147 19.3194 23.7595 18.1076 23.4562C16.5702 23.0717 15.0408 22.8282 13.447 22.7045L13.4467 22.7051ZM25.0237 24.919C25.1318 24.8183 25.2253 24.7185 25.3092 24.6195L25.0591 24.2954C24.3335 23.1954 23.7145 22.0434 23.2269 20.8132C22.8312 19.8147 22.5567 18.8126 22.3096 17.7387C21.4272 19.6852 19.9811 21.1019 18.0623 21.9655L19.272 22.2795C20.9988 22.7276 23.5437 23.8522 25.024 24.919H25.0237Z" fill="var(--fill-0, white)"/>
<path id="Vector_2" d="M1.52406 10.0853C1.70971 11.3413 2.08733 12.5032 2.67062 13.6136C3.22786 14.7078 3.9395 15.7033 4.75232 16.6217L3.98639 17.8875C3.49826 17.358 3.05812 16.8518 2.65554 16.2879C1.50541 14.7344 0.713152 13.0983 0.273557 11.2061C-0.0530541 9.80014 -0.0928178 8.34424 0.186351 6.92837C0.500347 5.33591 1.27588 3.79746 2.39118 2.63088C3.85229 1.10258 5.87119 0.219274 7.96661 0.0377316C9.32241 -0.0796399 10.6752 0.0785923 11.9723 0.4691C12.3521 0.583455 12.6859 0.708779 13.0591 0.842056C14.8603 1.57124 16.5013 2.60976 17.9415 3.96886C17.5403 4.22801 17.1778 4.51184 16.8375 4.88178C16.2144 4.32563 15.5903 3.83311 14.9066 3.38364C12.4026 1.78569 9.38878 0.873318 6.4512 1.75964C5.62164 2.01001 4.86586 2.40957 4.17753 2.93911C3.20538 3.68695 2.46989 4.70023 2.00808 5.83803C1.46098 7.18588 1.30933 8.63355 1.52406 10.0851V10.0853Z" fill="var(--fill-0, white)"/>
<path id="Vector_3" d="M36.4204 33.2422C36.5962 33.6116 36.4933 34.0575 36.2095 34.3427L34.7925 35.7671C34.41 36.1515 33.8322 36.1592 33.4329 35.8082C32.8394 35.2863 32.9615 34.7357 32.4563 34.23L30.7704 32.5426L26.0681 27.862L28.274 25.6248L29.0065 26.3617L30.7204 28.0696L31.6421 28.99L32.7424 30.0811L34.1821 31.5184C34.3919 31.7276 34.5786 31.9418 34.8153 32.1189C35.2587 32.4508 36.0611 32.4856 36.4206 33.2419L36.4204 33.2422Z" fill="var(--fill-0, white)"/>
<path id="Vector_4" d="M19.864 13.192C17.7031 12.6934 16.2228 10.7551 16.2357 8.56209C16.7668 8.59966 17.2544 8.58896 17.762 8.48421C19.3252 8.14992 20.6546 7.14211 21.4058 5.73447C21.6581 5.21151 21.8484 4.68499 21.9375 4.10965C22.7484 4.2709 23.4526 4.66332 24.0584 5.20466C25.0284 6.13211 25.5944 7.38782 25.5448 8.74061C24.6003 8.66383 23.6926 8.81822 22.8545 9.21092C21.2459 9.9593 20.1385 11.3955 19.8638 13.1917L19.864 13.192Z" fill="var(--fill-0, #95D776)"/>
<path id="Vector_5" d="M8.30051 27.2047C10.2042 27.7299 12.3882 27.4408 14.295 26.9749C13.4385 27.31 12.5544 27.5198 11.6522 27.7145C10.0482 28.0087 8.22839 28.1226 6.71134 27.449C6.3499 27.2886 6.02987 27.0714 5.73342 26.8172C5.41833 26.5471 5.19291 26.2386 5.00067 25.8744C4.70423 25.3128 4.55175 24.713 4.55093 24.071C4.55038 23.6967 4.57013 23.3408 4.64006 22.9741C4.7322 22.4912 4.85094 22.0401 5.02618 21.5785C5.3292 20.78 5.70847 20.0428 6.16177 19.3139C7.86668 16.5711 10.1949 14.3086 12.7661 12.3734C13.7029 11.6675 14.6575 11.0198 15.656 10.3756C15.8861 11.0968 16.2555 11.7155 16.7299 12.2738L15.1774 13.1382C14.1027 13.7561 13.0845 14.4309 12.0907 15.1785C10.9301 16.0374 9.86172 16.9969 8.87256 18.0464C8.11321 18.8521 7.45752 19.7179 6.86875 20.6511C6.53144 21.1858 6.25885 21.7242 6.03508 22.3127C5.67227 23.2664 5.48771 24.3253 5.88123 25.2941C6.04056 25.6863 6.26461 26.0186 6.57943 26.2986C7.07607 26.7404 7.65689 27.0377 8.30051 27.2044V27.2047Z" fill="var(--fill-0, #C0C9C7)"/>
<path id="Vector_6" d="M3.71856 25.7266C3.3393 24.7555 3.20959 23.7047 3.30721 22.6642C3.37714 21.9189 3.51947 21.2133 3.75887 20.5079C4.4557 18.4548 5.67165 16.5996 7.06036 14.9476C7.86688 13.9883 8.71206 13.0762 9.64254 12.2415L11.0047 11.0195C12.186 9.95958 13.4637 9.03377 14.7671 8.131L15.4513 7.65959C15.3715 8.23328 15.3485 8.75323 15.4096 9.3102C12.7532 11.0008 10.3265 12.8483 8.15044 15.1061C6.45403 16.8664 4.82866 19.1442 4.03064 21.4601C3.60887 22.684 3.42513 23.8629 3.61189 25.1455C3.65384 25.3438 3.70238 25.5198 3.71884 25.7266H3.71856Z" fill="var(--fill-0, #C0C9C7)"/>
<path id="Vector_7" d="M24.2543 11.8789C23.3192 12.8335 21.9886 13.4234 20.632 13.2871C21.0595 10.8942 23.0819 9.34969 25.4672 9.5422C25.425 9.8721 25.3178 10.1576 25.193 10.4532C24.9657 10.9912 24.6634 11.4613 24.2543 11.8789Z" fill="var(--fill-0, #95D776)"/>
<path id="Vector_8" d="M16.3347 7.77203C16.3893 7.40346 16.5187 7.05107 16.6816 6.69155C17.4703 4.95072 19.2136 3.89493 21.1505 3.9931C20.9138 5.51317 19.931 6.7741 18.5395 7.39825C17.8613 7.70758 17.1363 7.8255 16.3344 7.77203H16.3347Z" fill="var(--fill-0, #95D776)"/>
<path id="Vector_9" d="M9.33101 19.2026C9.8877 18.5203 10.4894 17.9134 11.1344 17.3271C12.3382 16.2332 13.5907 15.3225 14.9818 14.4773C15.8314 13.9658 16.6996 13.5134 17.6016 13.0875C18.0933 13.4618 18.6066 13.719 19.2042 13.9313C17.1672 14.5659 15.2089 15.4014 13.3578 16.4731C11.9335 17.2698 10.604 18.1841 9.33073 19.2026H9.33101Z" fill="var(--fill-0, #C0C9C7)"/>
<path id="Vector_10" d="M14.2629 4.84624C12.7711 4.08222 11.1723 3.54692 9.49511 3.41968C7.34979 3.25706 5.46225 3.73176 3.71621 5.05136C4.08258 4.51935 4.53589 4.08771 5.0413 3.71887C5.80833 3.15943 6.64831 2.80869 7.58371 2.63784C8.81255 2.41352 10.0589 2.50402 11.2606 2.86381C12.9713 3.37608 14.6932 4.41981 15.8869 5.77451L14.2629 4.84651V4.84624Z" fill="var(--fill-0, #C0C9C7)"/>
</g>
<defs>
<clipPath id="clip0_0_16">
<rect width="36.5069" height="36.0638" fill="white"/>
</clipPath>
</defs>
</svg>
