<svg preserveAspectRatio="none" width="100%" height="100%" overflow="visible" style="display: block;" viewBox="0 0 108.152 28.8373" fill="none" xmlns="http://www.w3.org/2000/svg">
<g id="Okocimski Klub Tenisowy">
<path id="Vector" d="M99.2624 17.9223H101.871C103.168 21.1866 103.722 23.0082 103.867 23.5474H103.911C104.115 22.8042 104.698 20.8077 105.718 17.9223H108.152L105.631 24.378C104.334 27.7443 103.94 28.8373 101.361 28.8373C101.026 28.8373 100.472 28.8082 100.195 28.7499V26.8263C100.545 26.8554 100.72 26.87 100.953 26.87C101.988 26.87 102.221 26.5348 102.614 25.7479L99.2624 17.9223Z" fill="var(--fill-0, white)"/>
<path id="Vector_2" d="M86.7478 17.9223H89.2106C90.1141 21.6675 90.3473 22.775 90.4785 23.6057H90.493C90.7116 22.673 90.9594 21.6529 92.0086 17.9223H94.2383C95.3166 21.8278 95.5498 22.8625 95.681 23.562H95.6955C95.8267 22.775 96.089 21.4926 96.9925 17.9223H99.3242L96.9634 25.4564H94.3986C93.6408 22.8187 93.2764 21.5655 93.0287 20.5745H93.0141C92.8101 21.376 92.3001 23.2414 91.586 25.4564H88.992L86.7478 17.9223Z" fill="var(--fill-0, white)"/>
<path id="Vector_3" d="M81.9986 17.7183C84.9423 17.7183 86.3122 19.8167 86.3122 21.6821C86.3122 23.9991 84.7091 25.6604 81.9112 25.6604C79.0986 25.6604 77.6705 23.7805 77.6705 21.6821C77.6705 19.6273 79.1569 17.7183 81.9986 17.7183ZM81.9695 19.5253C80.6725 19.5253 80.0896 20.5308 80.0896 21.6821C80.0896 22.8625 80.7453 23.868 81.984 23.868C83.2664 23.868 83.8639 22.877 83.8639 21.7258C83.8639 20.5891 83.2956 19.5253 81.9695 19.5253Z" fill="var(--fill-0, white)"/>
<path id="Vector_4" d="M69.2779 23.1393H71.6386C71.8281 23.6785 72.3236 24.0283 73.3437 24.0283C74.3638 24.0283 74.6406 23.7223 74.6406 23.3579C74.6406 22.9353 74.32 22.7313 72.8045 22.5273C69.9336 22.1192 69.5402 21.07 69.5402 20.1519C69.5402 19.0007 70.4 17.7183 73.0231 17.7183C75.6753 17.7183 76.608 18.9715 76.71 20.0499H74.3783C74.2618 19.7002 73.9994 19.2921 72.9356 19.2921C72.0321 19.2921 71.8718 19.6419 71.8718 19.9042C71.8718 20.2248 72.1195 20.4142 73.5185 20.6183C76.5788 21.0846 76.9723 22.1047 76.9723 23.1539C76.9723 24.5238 75.9376 25.6604 73.1834 25.6604C71.1286 25.6604 69.511 24.7861 69.2779 23.1393Z" fill="var(--fill-0, white)"/>
<path id="Vector_5" d="M65.7548 25.4564V17.9223H68.1301V25.4564H65.7548ZM68.1301 16.5087H65.7548V14.5997H68.1301V16.5087Z" fill="var(--fill-0, white)"/>
<path id="Vector_6" d="M56.1551 25.4564V19.8313C56.1551 19.1901 56.1551 18.4615 56.1405 17.9223H58.4576C58.4868 18.1409 58.5159 18.5926 58.5305 18.8987C58.8802 18.374 59.5651 17.7183 61.037 17.7183C62.8877 17.7183 63.9807 18.8695 63.9807 20.8077V25.4564H61.5762V21.1866C61.5762 20.3268 61.241 19.569 60.1772 19.569C59.0551 19.569 58.545 20.3414 58.545 21.6966V25.4564H56.1551Z" fill="var(--fill-0, white)"/>
<path id="Vector_7" d="M54.9226 22.265H49.0206C49.0789 23.1831 49.7347 23.8971 50.8714 23.8971C51.7603 23.8971 52.1829 23.6202 52.4598 23.1539H54.8498C54.3834 24.4946 53.2613 25.6604 50.8422 25.6604C47.7528 25.6604 46.6453 23.6202 46.6453 21.6966C46.6453 19.5836 48.0734 17.7183 50.8277 17.7183C53.7568 17.7183 54.9372 19.7439 54.9372 21.6966C54.9372 21.8861 54.9372 22.0318 54.9226 22.265ZM49.0498 20.8077H52.5181C52.4744 20.2394 52.1684 19.3941 50.8131 19.3941C49.5744 19.3941 49.1081 20.0645 49.0498 20.8077Z" fill="var(--fill-0, white)"/>
<path id="Vector_8" d="M41.5884 25.4564V17.1791H37.9743V15.1972H47.6798V17.1791H44.0803V25.4564H41.5884Z" fill="var(--fill-0, white)"/>
<path id="Vector_9" d="M25.258 22.9499V14.5997H27.6334V18.7384C28.0123 18.2866 28.6972 17.7183 30.1253 17.7183C32.1801 17.7183 33.7977 19.3067 33.7977 21.5363C33.7977 24.1303 32.0926 25.6604 29.9796 25.6604C28.5369 25.6604 27.8957 25.1358 27.5459 24.6112C27.5459 24.8006 27.5314 25.2815 27.5168 25.4564H25.2434C25.258 24.3635 25.258 23.7805 25.258 22.9499ZM31.3494 21.6529C31.3494 20.5891 30.7957 19.569 29.4841 19.569C28.158 19.569 27.5751 20.4142 27.5751 21.6821C27.5751 22.877 28.2163 23.7805 29.455 23.7805C30.7374 23.7805 31.3494 22.8333 31.3494 21.6529Z" fill="var(--fill-0, white)"/>
<path id="Vector_10" d="M23.5378 17.9223V23.2705C23.5378 23.9846 23.5378 24.7278 23.5523 25.4564H21.2207C21.1916 25.2524 21.1916 24.9027 21.177 24.5821C20.7981 25.165 20.2297 25.6604 18.6413 25.6604C17.0675 25.6604 15.8433 24.7424 15.8433 22.5273V17.9223H18.2187V22.1338C18.2187 23.1393 18.583 23.8097 19.574 23.8097C20.7252 23.8097 21.1624 23.1248 21.1624 21.4052V17.9223H23.5378Z" fill="var(--fill-0, white)"/>
<path id="Vector_11" d="M14.2411 25.4564H11.8657V14.5997H14.2411V25.4564Z" fill="var(--fill-0, white)"/>
<path id="Vector_12" d="M0.495576 25.4564V15.1972H2.98752V19.6856C4.45938 18.3158 5.88751 17.0188 7.84027 15.1972H10.886L6.06238 19.6127L11.1483 25.4564H8.05886L4.2845 20.9826L2.98752 22.061V25.4564H0.495576Z" fill="var(--fill-0, white)"/>
<path id="Vector_13" d="M69.901 10.9879V3.65778H70.994V10.9879H69.901ZM70.994 1.60301H69.901V4.84045e-06H70.994V1.60301Z" fill="var(--fill-0, white)"/>
<path id="Vector_14" d="M62.8322 4.84045e-06V7.27183C63.6192 6.58691 65.9362 4.6633 67.1458 3.65778H68.5885L65.1056 6.51404L68.9674 10.9879H67.5247L64.2749 7.15525L62.8322 8.27735V10.9879H61.7247V4.84045e-06H62.8322Z" fill="var(--fill-0, white)"/>
<path id="Vector_15" d="M53.2614 8.77283H54.3835C54.6604 9.74921 55.491 10.303 56.9046 10.303C58.4348 10.303 59.0031 9.74921 59.0031 9.00599C59.0031 8.33564 58.6242 7.85474 56.6423 7.63615C54.1358 7.33012 53.6112 6.47033 53.6112 5.55224C53.6112 4.64873 54.3544 3.45376 56.6277 3.45376C59.1634 3.45376 59.8192 4.79446 59.8775 5.6251H58.7699C58.6533 5.1442 58.3327 4.3427 56.5549 4.3427C55.0539 4.3427 54.7333 4.99847 54.7333 5.4648C54.7333 6.07686 55.1122 6.44118 56.8755 6.67435C59.5714 7.02409 60.1252 7.8256 60.1252 8.93313C60.1252 10.2447 59.1197 11.1919 56.8463 11.1919C54.675 11.1919 53.5237 10.2738 53.2614 8.77283Z" fill="var(--fill-0, white)"/>
<path id="Vector_16" d="M41.0035 10.9879V5.55224C41.0035 4.91104 41.0035 4.28441 40.9889 3.65778H42.0673C42.0965 3.96381 42.111 4.40099 42.0965 4.8236C42.4754 4.16782 43.1894 3.45376 44.5155 3.45376C45.6959 3.45376 46.4392 4.03667 46.7743 4.91104C47.1678 4.25526 47.8527 3.45376 49.31 3.45376C50.7236 3.45376 51.8894 4.26983 51.8894 6.42661V10.9879H50.7964V6.47033C50.7964 5.55224 50.505 4.41556 49.106 4.41556C47.8381 4.41556 47.0075 5.28993 47.0075 6.98037V10.9879H45.9V6.39746C45.9 5.47938 45.5939 4.41556 44.1949 4.41556C42.6794 4.41556 42.111 5.61053 42.111 7.11153V10.9879H41.0035Z" fill="var(--fill-0, white)"/>
<path id="Vector_17" d="M37.7374 10.9879V3.65778H38.8304V10.9879H37.7374ZM38.8304 1.60301H37.7374V4.84045e-06H38.8304V1.60301Z" fill="var(--fill-0, white)"/>
<path id="Vector_18" d="M34.9868 8.74368H36.0944C35.7155 10.0552 34.5788 11.1919 32.5823 11.1919C30.0466 11.1919 28.7934 9.44318 28.7934 7.35927C28.7934 5.24621 30.2069 3.45376 32.6115 3.45376C34.9577 3.45376 35.9049 4.92561 36.0798 5.94571H34.9868C34.6954 5.18792 34.0542 4.38642 32.5823 4.38642C30.9356 4.38642 29.9155 5.61053 29.9155 7.33012C29.9155 8.96227 30.8919 10.2593 32.5969 10.2593C33.8793 10.2593 34.6079 9.6472 34.9868 8.74368Z" fill="var(--fill-0, white)"/>
<path id="Vector_19" d="M23.9805 3.45376C26.4287 3.45376 27.7694 5.34822 27.7694 7.31555C27.7694 9.29745 26.5162 11.1919 23.9222 11.1919C21.5177 11.1919 20.1333 9.35574 20.1333 7.33012C20.1333 5.20249 21.6051 3.45376 23.9805 3.45376ZM23.9222 4.40099C22.1298 4.40099 21.2554 5.75626 21.2554 7.33012C21.2554 8.80197 22.2318 10.2447 23.9514 10.2447C25.7584 10.2447 26.6328 8.90398 26.6328 7.34469C26.6328 5.75626 25.6418 4.40099 23.9222 4.40099Z" fill="var(--fill-0, white)"/>
<path id="Vector_20" d="M13.8039 4.84045e-06V7.27183C14.5908 6.58691 16.9079 4.6633 18.1174 3.65778H19.5601L16.0772 6.51404L19.939 10.9879H18.4963L15.2466 7.15525L13.8039 8.27735V10.9879H12.6963V4.84045e-06H13.8039Z" fill="var(--fill-0, white)"/>
<path id="Vector_21" d="M5.42116 0.393469C8.65632 0.393469 10.7985 2.87084 10.7985 5.77083C10.7985 8.71453 8.80205 11.2065 5.40659 11.2065C2.11314 11.2065 8.16932e-05 8.80197 8.16932e-05 5.75626C8.16932e-05 2.87084 2.14228 0.393469 5.42116 0.393469ZM5.33372 1.41356C2.81263 1.41356 1.23877 3.39546 1.23877 5.71254C1.23877 8.02961 2.71062 10.1864 5.43573 10.1864C8.10256 10.1864 9.55984 8.20449 9.55984 5.79998C9.55984 3.55577 8.07341 1.41356 5.33372 1.41356Z" fill="var(--fill-0, white)"/>
</g>
</svg>
