<svg preserveAspectRatio="none" width="100%" height="100%" overflow="visible" style="display: block;" viewBox="0 0 71.2622 11.1919" fill="none" xmlns="http://www.w3.org/2000/svg">
<g id="w Brzesku">
<path id="Vector" d="M71.2476 3.65779V8.84571C71.2476 9.55977 71.2476 10.2738 71.2622 10.9879H70.2129C70.1838 10.7839 70.1546 10.2155 70.1546 9.63264C69.7903 10.5362 69.0908 11.1919 67.4732 11.1919C65.9139 11.1919 64.7044 10.3613 64.7044 8.21908V3.65779H65.8119V8.01506C65.8119 9.15173 66.2637 10.2155 67.6918 10.2155C69.3968 10.2155 70.1546 9.2246 70.1546 6.95124V3.65779H71.2476Z" fill="var(--fill-0, white)"/>
<path id="Vector_2" d="M57.9917 1.98418e-05V7.27184C58.7787 6.58692 61.0957 4.66331 62.3053 3.65779H63.748L60.2651 6.51406L64.1269 10.9879H62.6842L59.4344 7.15526L57.9917 8.27737V10.9879H56.8842V1.98418e-05H57.9917Z" fill="var(--fill-0, white)"/>
<path id="Vector_3" d="M48.4207 8.77284H49.5428C49.8197 9.74922 50.6503 10.303 52.0639 10.303C53.594 10.303 54.1624 9.74922 54.1624 9.00601C54.1624 8.33566 53.7835 7.85476 51.8016 7.63617C49.2951 7.33014 48.7704 6.47034 48.7704 5.55226C48.7704 4.64874 49.5137 3.45377 51.787 3.45377C54.3227 3.45377 54.9785 4.79447 55.0367 5.62512H53.9292C53.8126 5.14422 53.492 4.34271 51.7141 4.34271C50.2131 4.34271 49.8925 4.99849 49.8925 5.46482C49.8925 6.07688 50.2714 6.4412 52.0348 6.67436C54.7307 7.02411 55.2845 7.82561 55.2845 8.93314C55.2845 10.2447 54.279 11.1919 52.0056 11.1919C49.8343 11.1919 48.683 10.2738 48.4207 8.77284Z" fill="var(--fill-0, white)"/>
<path id="Vector_4" d="M47.4516 7.57787H41.1707C41.2582 9.13716 42.2928 10.2593 43.8958 10.2593C45.1199 10.2593 45.8194 9.73465 46.242 8.94772H47.3496C46.9707 9.98239 45.9506 11.1919 43.8084 11.1919C41.2873 11.1919 40.0632 9.29746 40.0632 7.34471C40.0632 5.08593 41.5642 3.45377 43.7647 3.45377C46.5189 3.45377 47.4516 5.50854 47.4516 7.27185V7.57787ZM41.1999 6.71808H46.2858C46.2275 5.75627 45.7174 4.35729 43.7501 4.35729C42.1617 4.35729 41.3456 5.37738 41.1999 6.71808Z" fill="var(--fill-0, white)"/>
<path id="Vector_5" d="M32.282 10.9879V10.1427L37.6302 4.59045H32.588V3.65779H39.0729V4.53216L33.7684 10.0552H39.4081L39.1895 10.9879H32.282Z" fill="var(--fill-0, white)"/>
<path id="Vector_6" d="M27.4674 10.9879V5.65427C27.4674 4.98392 27.4674 4.31357 27.4528 3.65779H28.5166C28.5312 3.86181 28.5603 4.6196 28.5603 5.36281C29.0558 4.19699 30.1633 3.45377 31.5769 3.45377V4.54673C29.8719 4.51759 28.5603 5.63969 28.5603 7.81104V10.9879H27.4674Z" fill="var(--fill-0, white)"/>
<path id="Vector_7" d="M17.2622 10.9879V0.612076H22.0421C24.1988 0.612076 25.3792 1.54474 25.3792 3.20603C25.3792 4.51758 24.4757 5.18793 23.6597 5.40653C24.5777 5.63969 25.8164 6.28089 25.8164 7.97134C25.8164 10.0844 24.0531 10.9879 22.1878 10.9879H17.2622ZM18.4134 4.95477H21.7215C23.3245 4.95477 24.1551 4.401 24.1551 3.2789C24.1551 1.96735 23.0913 1.60303 21.7943 1.60303H18.4134V4.95477ZM18.4134 5.94572V9.99696H21.8526C23.1496 9.99696 24.5777 9.60349 24.5777 8.00048C24.5777 6.63064 23.4702 5.94572 21.6632 5.94572H18.4134Z" fill="var(--fill-0, white)"/>
<path id="Vector_8" d="M8.16932e-05 3.65779H1.15133C2.60861 8.13164 2.92921 9.13716 3.11866 9.92409H3.13323C3.32268 9.21003 3.65785 8.26279 5.31915 3.65779H6.38297C7.98597 8.14621 8.37944 9.26832 8.51059 9.83665H8.52517C8.70004 9.13716 9.22466 7.49044 10.5508 3.65779H11.6583L9.04979 10.9879H7.92768C7.02417 8.40852 6.04779 5.7417 5.80005 4.92562H5.78548C5.59603 5.59597 4.77996 7.94219 3.65785 10.9879H2.47746L8.16932e-05 3.65779Z" fill="var(--fill-0, white)"/>
</g>
</svg>
