<svg preserveAspectRatio="none" width="100%" height="100%" overflow="visible" style="display: block;" viewBox="0 0 64 64" fill="none" xmlns="http://www.w3.org/2000/svg">
<g id="fi_5287339">
<path id="Vector" d="M48.1 18.3C44.9 18.3 42.2 20 40.7 22.5L33.5 19.7L35.3 15L42.4 17.7C42.9 17.9 43.4 17.8 43.8 17.5C44.2 17.2 44.5 16.7 44.5 16.2C44.1 11.4 42 7.00001 38.5 4.10001C38.5 4.10001 38.4 4.10001 38.4 4.00001C37 3.00001 35.6 2.20001 34 1.60001C32.4 1.00001 30.8 0.700015 29.1 0.600015C21.6 0.300015 14.5 5.30001 11.6 13C8.9 20 10.3 27.6 15 32.6L16.6 43.1L14.9 47.7C12.9 47.5 11 48.6 10.3 50.6L7.6 57.7C7.3 58.6 7.3 59.5 7.7 60.4C8.1 61.2 8.8 61.9 9.6 62.2L12.1 63.2C13 63.5 13.9 63.5 14.8 63.1C15.6 62.7 16.3 62 16.6 61.2L19.3 54.1C20 52.2 19.3 50 17.7 48.9L19.4 44.3L27.6 37.5C31.5 37.2 35.3 35.4 38.3 32.5C38.7 32.1 38.9 31.4 38.7 30.9C38.6 30.5 38.2 30.1 37.8 30L30.6 27.3L32.4 22.6L39.6 25.4C39.5 25.9 39.4 26.4 39.4 27C39.4 28.5 39.8 29.9 40.5 31.2C42 33.9 44.9 35.6 48 35.6C52.8 35.6 56.6 31.7 56.6 27C56.6 22.3 52.9 18.3 48.1 18.3ZM30.7 18.7L25.2 16.6L27 11.9L32.5 14L30.7 18.7ZM18.4 35.4C19.1 35.8 19.9 36.2 20.7 36.5C21.5 36.8 22.3 37 23.1 37.2L19.2 40.5L18.4 35.4ZM24.7 34.4C23.7 34.3 22.7 34 21.8 33.7C20.9 33.3 20 32.9 19.2 32.3L21.3 26.9L26.8 29L24.7 34.4ZM16.8 30.1C15.3 28.3 14.2 26.2 13.7 23.9L18.5 25.7L16.8 30.1ZM13.2 20.6C13.2 18.9 13.4 17.2 13.9 15.5L21.3 18.3L19.5 23L13.2 20.6ZM15 12.7C15.8 11.1 16.8 9.70001 17.9 8.40001L24.1 10.8L22.3 15.5L15 12.7ZM20.5 6.20001C22.4 4.80001 24.6 4.00001 26.9 3.70001L25.2 8.00001L20.5 6.20001ZM41.1 14.1L36.4 12.3L38 8.00001C39.4 9.70001 40.5 11.8 41.1 14.1ZM35.6 5.80001L33.5 11.2L28 9.10001L30.1 3.70001C31.1 3.80001 32 4.10001 33 4.40001C33.9 4.80001 34.8 5.20001 35.6 5.80001ZM16.4 53L13.7 60.1C13.6 60.3 13.3 60.5 13.1 60.4L10.6 59.4C10.4 59.3 10.2 59 10.3 58.8L13 51.7C13.2 51.1 13.8 50.7 14.4 50.7C14.8 50.7 15.2 50.9 15.5 51C16.3 51.3 16.7 52.2 16.4 53ZM34.3 31.9C32.3 33.3 30.2 34.1 27.9 34.4L29.6 30.1L34.3 31.9ZM27.8 26.2L22.3 24.1L24.1 19.4L29.6 21.5L27.8 26.2ZM48.1 21.3C51 21.3 53.4 23.5 53.7 26.3C49.1 24.2 44.9 25.3 42.5 26.3C42.8 23.5 45.2 21.3 48.1 21.3ZM48.1 32.6C46 32.6 44 31.3 43 29.4C44.7 28.6 48.7 27.1 53.1 29.4C52.3 31.2 50.4 32.6 48.1 32.6Z" fill="var(--fill-0, #A9EB8A)"/>
</g>
</svg>
