<svg preserveAspectRatio="none" width="100%" height="100%" overflow="visible" style="display: block;" viewBox="0 0 63.998 64" fill="none" xmlns="http://www.w3.org/2000/svg">
<g id="Group">
<path id="Vector" d="M59.4331 48.4538C62.3292 43.6428 63.9976 38.0125 63.998 31.9995C63.998 24.7891 61.6563 17.9804 57.227 12.3131C56.5304 11.4224 55.2436 11.2649 54.3529 11.9604C53.4621 12.657 53.3035 13.9438 54.0001 14.8345C57.8604 19.7753 59.9015 25.711 59.9015 31.9995C59.9015 36.4641 58.8461 40.686 56.9746 44.4318C50.4109 38.3705 51.1893 31.4845 52.0778 23.6089C52.6923 18.1723 53.3268 12.5505 51.4055 6.99963C51.268 6.60025 51.0095 6.25313 50.6656 6.00688C45.2045 2.07763 38.7484 0 31.9985 0C20.726 0 10.4962 5.75825 4.63475 15.4024C4.2975 15.9593 4.24312 16.6425 4.4905 17.2437C7.17712 23.793 12.5928 28.656 17.8308 33.3605C26.8956 41.5024 33.5154 47.4503 24.7321 58.9414C12.8593 55.7354 4.09662 44.8726 4.09662 31.9984C4.09662 29.051 4.5525 26.1491 5.45438 23.3738C5.80263 22.2978 5.21475 21.143 4.13875 20.7935C3.06388 20.4441 1.908 21.0343 1.5585 22.1091C0.524625 25.2939 0 28.6218 0 31.9995C0.000125 49.6448 14.3542 64 31.9985 64C43.4643 64 53.5388 57.9369 59.19 48.8495C59.1969 48.8406 59.2046 48.8329 59.2114 48.824C59.3 48.7064 59.3734 48.5821 59.4331 48.4538ZM31.9995 59.9034C31.0486 59.9034 30.1088 59.8553 29.182 59.7619C38.2861 46.2283 28.9046 37.8034 20.5661 30.3144C15.9471 26.1656 11.1794 21.8839 8.69788 16.6391C13.8871 8.76438 22.5206 4.09537 31.9972 4.09762C37.6635 4.09762 43.089 5.77375 47.7324 8.954C49.1024 13.4444 48.5699 18.1644 48.0064 23.1495C47.0906 31.2647 46.0596 40.4064 54.8379 48.0115C49.7855 55.1985 41.4325 59.9041 31.9995 59.9034Z" fill="var(--fill-0, #A9EB8A)"/>
</g>
</svg>
